<svg xmlns="http://www.w3.org/2000/svg" width="100" height="100">
	<style>
		@keyframes spin{to{transform:rotate(359deg)}}
	</style>
	<g style="fill:none;stroke-opacity:.2;stroke-width:6;stroke-linecap:round;stroke:#000;vector-effect:non-scaling-stroke;">
		<line x1="50" x2="50" y1="23" y2="4"/>
		<line x1="60" x2="67" y1="24" y2="7"/>
		<line x1="69" x2="82" y1="30" y2="17"/>
		<line x1="75" x2="92" y1="39" y2="32"/>
		<line x1="77" x2="96" y1="50" y2="50"/>
		<line x1="75" x2="92" y1="60" y2="67"/>
		<line x1="69" x2="82" y1="69" y2="82"/>
		<line x1="60" x2="67" y1="75" y2="92"/>
		<line x1="50" x2="50" y1="77" y2="96"/>
		<line x1="39" x2="32" y1="75" y2="92"/>
		<line x1="30" x2="17" y1="69" y2="82"/>
		<line x1="24" x2="7" y1="60" y2="67"/>
		<line x1="22" x2="4" y1="50" y2="50"/>
		<line x1="24" x2="7" y1="39" y2="32"/>
		<line x1="30" x2="17" y1="30" y2="17"/>
		<line x1="39" x2="32" y1="24" y2="7"/>
		<g style="transform-origin:50px 50px 0;animation:spin 1.2s steps(16) infinite">
			<line x1="50" x2="50" y1="23" y2="4"/>
			<line x1="39" x2="32" y1="24" y2="7"/>
			<line x1="30" x2="17" y1="30" y2="17"/>
		</g>
	</g>
</svg>
